<?xml version="1.0" encoding="UTF-8" standalone="no"?>
<!-- Created with Inkscape (http://www.inkscape.org/) -->

<svg
   width="165.59427mm"
   height="165.13907mm"
   viewBox="0 0 165.59427 165.13907"
   version="1.1"
   id="svg5"
   inkscape:version="1.1.1 (3bf5ae0d25, 2021-09-20)"
   sodipodi:docname="dessin fleche.svg"
   xmlns:inkscape="http://www.inkscape.org/namespaces/inkscape"
   xmlns:sodipodi="http://sodipodi.sourceforge.net/DTD/sodipodi-0.dtd"
   xmlns="http://www.w3.org/2000/svg"
   xmlns:svg="http://www.w3.org/2000/svg">
  <sodipodi:namedview
     id="namedview7"
     pagecolor="#505050"
     bordercolor="#eeeeee"
     borderopacity="1"
     inkscape:pageshadow="0"
     inkscape:pageopacity="0"
     inkscape:pagecheckerboard="0"
     inkscape:document-units="mm"
     showgrid="false"
     inkscape:zoom="0.52410025"
     inkscape:cx="392.10056"
     inkscape:cy="483.68609"
     inkscape:window-width="1920"
     inkscape:window-height="1017"
     inkscape:window-x="-8"
     inkscape:window-y="-8"
     inkscape:window-maximized="1"
     inkscape:current-layer="layer1" />
  <defs
     id="defs2" />
  <g
     inkscape:label="Calque 1"
     inkscape:groupmode="layer"
     id="layer1"
     transform="translate(-16.458296,-58.57084)">
    <rect
       style="fill:none;stroke-width:0.264583"
       id="rect139"
       width="26.058895"
       height="49.975964"
       x="88.171867"
       y="98.52404" />
    <path
       style="fill:#cccccc;stroke-width:0.264583;fill-opacity:0.5625"
       d="m 181.76653,149.3599 c -1.77342,14.83526 -6.05271,26.60353 -13.90239,38.2323 -3.62121,5.36459 -9.03915,11.53237 -13.88089,15.80202 -9.547,8.41894 -21.49142,14.70012 -34.09477,17.92934 -13.60294,3.48532 -27.404804,3.48527 -41.010424,-1.7e-4 -12.66796,-3.24523 -24.340274,-9.39169 -34.131254,-17.97297 -1.32252,-1.15913 -6.29736,-6.13857 -7.54915,-7.55614 -3.56683,-4.03921 -7.559624,-9.7407 -10.376204,-14.81667 -5.39576,-9.72408 -8.87678,-21.25075 -9.90802,-32.80833 -0.342946,-8.07502 -0.262337,-8.03925 0.0044,-14.1552 2.79084,-32.34667 24.512344,-60.29007 55.218018,-71.03463 8.17125,-2.85929 18.72369,-4.63621 27.53272,-4.63621 5.438094,0 13.222274,0.94049 18.764704,2.26717 29.89921,7.15692 53.31652,30.04286 61.03015,59.64534 1.90485,7.3102 2.25447,10.25717 2.33853,19.71145 0.0414,4.65666 0.0254,8.88338 -0.0354,9.3927 z m -28.58017,-20.80932 c -0.93444,-3.35614 -0.83577,-3.24712 -22.96418,-25.37334 -16.05949,-16.05789 -21.26311,-21.1081 -22.40725,-21.74666 -3.91468,-2.18484 -8.984844,-2.26171 -12.602554,-0.19107 -0.80766,0.46227 -8.69163,8.1589 -22.17971,21.65266 -16.505294,16.51224 -21.103904,21.2574 -21.765624,22.45926 -1.00558,1.82638 -1.61621,4.24558 -1.62154,6.42425 -0.019,7.75828 7.32141,13.34111 14.934064,11.35826 3.4232,-0.89163 4.0941,-1.43959 14.69127,-11.99924 l 9.92597,-9.89085 0.13296,35.68771 0.13296,35.68772 0.59588,1.56636 c 1.17346,3.08464 2.67239,4.98864 5.22362,6.63525 2.62775,1.696 6.286824,2.21561 9.553174,1.3566 4.00831,-1.05412 6.68211,-3.62871 8.53306,-8.21644 0.39324,-0.97467 0.44719,-4.47347 0.56689,-36.76412 l 0.13229,-35.68691 9.12813,9.11538 c 5.02047,5.01346 9.78297,9.64338 10.58333,10.28873 1.84322,1.48624 4.40785,2.64081 6.38338,2.87374 8.95487,1.05587 15.44591,-6.53834 13.02388,-15.23729 z"
       id="path2930"
       sodipodi:nodetypes="ssssssssccsssssssssssssssscccssssscssss" />
  </g>
</svg>
